<?xml version="1.0" encoding="UTF-8" standalone="no"?>
<svg
   width="24"
   height="24"
   viewBox="0 0 24 24"
   version="1.1"
   id="svg1"
   sodipodi:docname="bx-eraser-red.svg"
   inkscape:version="1.3.2 (091e20ef0f, 2023-11-25, custom)"
   xmlns:inkscape="http://www.inkscape.org/namespaces/inkscape"
   xmlns:sodipodi="http://sodipodi.sourceforge.net/DTD/sodipodi-0.dtd"
   xmlns="http://www.w3.org/2000/svg"
   xmlns:svg="http://www.w3.org/2000/svg">
  <defs
     id="defs1" />
  <sodipodi:namedview
     id="namedview1"
     pagecolor="#ffffff"
     bordercolor="#000000"
     borderopacity="0.25"
     inkscape:showpageshadow="2"
     inkscape:pageopacity="0.0"
     inkscape:pagecheckerboard="0"
     inkscape:deskcolor="#d1d1d1"
     inkscape:zoom="34.375"
     inkscape:cx="12"
     inkscape:cy="11.985455"
     inkscape:window-width="1840"
     inkscape:window-height="1052"
     inkscape:window-x="1920"
     inkscape:window-y="0"
     inkscape:window-maximized="1"
     inkscape:current-layer="svg1" />
  <path
     d="m2.586 15.408 4.299 4.299a.996.996 0 0 0 .707.293h12.001v-2h-6.958l7.222-7.222c.78-.779.78-2.049 0-2.828L14.906 3a2.003 2.003 0 0 0-2.828 0l-4.75 4.749-4.754 4.843a2.007 2.007 0 0 0 .012 2.816zM13.492 4.414l4.95 4.95-2.586 2.586L10.906 7l2.586-2.586zM8.749 9.156l.743-.742 4.95 4.95-4.557 4.557a1.026 1.026 0 0 0-.069.079h-1.81l-4.005-4.007 4.748-4.837z"
     id="path1"
     style="fill:#ff0000;fill-opacity:1" />
</svg>
